# xmcd CD database file
#
# Track frame offsets:
#	150
#	17789
#	33208
#	50158
#	69039
#	87232
#	103875
#	117251
#	137788
#	152904
#	169859
#
# Disc length: 2435 seconds
#
# Revision: 0
# Processed by: cddbd v1.5.2PL0 Copyright (c) Steve Scherf et al.
# Submitted via: CDex 1.51
#
DISCID=9009810b
DTITLE=Dierks Bentley - Long Trip Alone
DYEAR=2006
DGENRE=Country
TTITLE0=Every Mile a Memory
TTITLE1=Can't Live It Down
TTITLE2=Long Trip Alone
TTITLE3=That Don't Make It Easy Loving Me
TTITLE4=Soon As You Can
TTITLE5=Trying to Stop Your Leaving
TTITLE6=Hope for Me Yet
TTITLE7=The Heaven I'm Headed To
TTITLE8=Free and Easy (Down the Road I Go)
TTITLE9=Band of Brothers
TTITLE10=Prodigal Son's Prayer
EXTD=YEAR: 2006
EXTT0=
EXTT1=
EXTT2=
EXTT3=
EXTT4=
EXTT5=
EXTT6=
EXTT7=
EXTT8=
EXTT9=
EXTT10=
PLAYORDER=
